<?xml version="1.0" standalone="no"?><!DOCTYPE svg PUBLIC "-//W3C//DTD SVG 1.1//EN" "http://www.w3.org/Graphics/SVG/1.1/DTD/svg11.dtd"><svg t="1737266696698" class="icon" viewBox="0 0 1024 1024" version="1.1" xmlns="http://www.w3.org/2000/svg" p-id="6672" xmlns:xlink="http://www.w3.org/1999/xlink" width="200" height="200"><path d="M686.21433 952.081624c-2.739973-1.320383-5.479946-2.641788-9.243702-4.454118 2.916911 19.339363 5.646656 37.437096 8.378447 55.536874-1.295837 0.908211-2.587582 1.816421-3.88035 2.724632-7.358756-9.487119-14.722626-18.976283-22.9405-29.564915-1.128104 15.885504-2.198933 30.958936-3.273854 46.032369-1.342883 0.548199-2.688835 1.096398-4.034787 1.643575-4.025582-9.343933-9.145517-18.302285-11.87424-28.100323-8.032755-28.831596-10.939438-58.396511-5.315282-88.283594 1.619029-8.610614 0.959349-14.65001-6.876013-18.097733-1.440046-0.634111-2.958844-1.639484-3.923306-2.954753-8.40913-11.447749-15.405829-24.767149-25.385918-34.046648-9.99134-9.292795-22.882203-14.66842-34.587688-21.58023-3.162373-1.865514-7.074429-5.09948-9.887018-4.308887-58.319804 16.389724-100.734671-10.549766-134.621768-61.532292-5.153686-7.752519-10.783978-15.106161-17.612945-24.623963-8.146281 14.22761-15.875276 26.930286-22.872998 40.123886-14.510915 27.348594-30.172434 52.983043-56.18019 68.825591-31.609411 19.257542-65.007629 15.249347-90.147063-13.385879-8.010254-9.126085-14.373865-20.051204-22.018994-29.620144-8.404016-10.518061-16.710871-21.403292-26.418906-30.237891-5.969848-5.4329-14.485346-7.320914-21.766372-10.761478-1.347997 3.356697-1.898242 4.137063-1.956539 4.963453-2.366666 33.21719-9.307113 42.430209-38.753388 48.392898-4.186155 0.846845-10.801365-2.497579-13.552589-6.367702-3.656366-5.145504-4.623897-12.710858-7.134772-20.429625 2.544626-0.20762 5.222211-0.427514 7.958093-0.655589 5.039137-37.977113-15.257529-67.055194-57.503641-81.55179-0.682181 2.615197-1.362316 5.217097-2.150864 8.238329-15.35776-7.065224-27.678946-16.275175-32.421482-35.099067-2.524171-10.021-1.422659-15.393556 8.983921-15.774023 4.000013-0.1483 7.937638-2.523148 11.902877-3.883419-1.686531-4.640261-2.348256-10.419876-5.245734-13.715208-9.666102-11.00694-20.133025-21.123056-31.562364-32.888884 4.691399-2.89441 6.75226-5.312214 8.455154-5.028909 11.111261 1.851195 13.850212-6.565095 16.529842-15.782205 22.62549-77.836104 49.078147-153.932494 81.378944-227.404483 16.270061-37.009582 31.970445-74.332129 48.185278-111.370349 2.139613-4.885723 5.798025-8.926647 8.754823-13.358264 1.433909 0.631043 2.865773 1.26004 4.299682 1.892105-7.692176 32.936953-18.86378 65.444348-22.12127 98.925409-3.420108 35.165547-18.545702 65.828905-24.193381 100.057604 8.647433 2.899524 12.933819 1.242653 14.724671-9.104607 5.222211-30.191866 17.671242-56.996353 33.24685-81.951689 1.976994-3.165441 6.642824-4.073652 9.783719-6.485319 3.021232-2.320642 6.130422-4.81413 8.432654-7.94582 25.418647-34.562119 50.129544-69.807441 76.27435-103.657718 10.26953-13.295876 23.576657-23.650295 35.671813-35.115432 3.12044-2.957821 6.886241-5.056524 11.701394-6.603959-19.282089 19.425275-15.520378 45.811452-20.110524 73.589606 5.076979-4.204565 7.654334-6.286904 10.183618-8.440836 15.752545-13.418607 31.223831-27.280069 47.387525-40.036951 5.385853-4.251612 10.905687-12.687334 19.688124-5.673248 0.980827 0.785479 4.651511-2.424963 6.944538-4.020468 50.39853-35.097022 99.286443-73.401418 151.537191-104.567974 68.755021-41.011641 139.761136-77.597801 216.406748-97.131489 13.826688-3.525453 28.02873-5.293804 42.122358-7.303527 3.963194-0.566609 8.156509 0.903097 14.716489 1.76426-3.568409 3.206352-4.886746 5.424717-6.342133 5.546426-28.30692 2.357461-49.683621 20.251665-68.797977 41.098576-17.764313 19.37516-34.533481 40.237412-49.526116 62.346409-7.070338 10.430103-10.402489 24.96761-12.87859 38.244053-4.398889 23.60018 5.385853 41.474951 28.068617 53.759318 27.163475 14.715467 54.748327 28.171916 85.946589 26.797327 1.728464-0.075684 3.49477 0.962417 7.938661 2.286891-4.550258 2.53133-6.693962 4.731286-8.880622 4.783447-30.861774 0.743546-50.203183 23.347558-69.116055 46.308514-6.394294 7.766837-11.996971 16.66996-16.612686 25.907526-8.114575 16.237333-9.327568 34.165288 0.069548 49.552707 11.327064 18.549793 24.058376 36.440928 38.362694 52.102447 7.652288 8.383561 19.882449 11.484569 32.625012 18.359559-4.749696 1.177196-7.233979 2.71645-9.243702 2.142682-16.805987-4.80288-29.854356 3.51318-42.722718 14.093629-48.989167 40.279345-27.910089 86.956052 6.29304 117.383153 4.148313 3.689094 8.863236 6.573277 13.196668 11.231947-42.62351-8.169804-80.845063-7.901841-93.606036 53.326691-5.057547-3.920238-9.989294-7.744336-15.262643-11.83333 6.053715 14.72774 13.986239 28.279306 17.118952 43.11239 3.945807 18.690934 4.584009 38.399513 5.357215 57.731717 0.277168 6.969085-0.645361 11.884468 6.155991 16.12892 6.328837 3.950921 11.044782 11.161377 16.835647 17.323504 13.420653-8.114575 24.195426-19.740285 32.388754-35.84875 9.382797-18.440357 21.510682-35.103158 32.258864-52.682352 2.436214-3.993877 4.100244-8.582999 6.120194-12.899045 2.016882 1.557663 4.034787 3.116349 6.051669 4.670944-1.863468 11.346496-3.724891 22.691969-5.951439 36.2599 16.605526-14.614213 32.434778-27.910089 47.642192-42.04156 38.420991-35.705564 80.005377-65.388096 126.982776-84.654843 35.758747-14.66842 72.598552-15.025363 110.053035-6.755328-2.766565 0.633088-5.539267 1.857332-8.297649 1.815398-68.366372-1.000259-129.125458 23.599157-182.953301 70.034493-33.576178 28.963532-66.229827 59.285289-99.172917 89.17135-2.751224 2.495534-4.550258 6.321678-5.469719 10.692953 8.056278-4.433663 16.112556-8.868349 24.17088-13.30099 1.185378 1.26004 2.368711 2.521103 3.553067 3.781143-4.738446 10.252143-9.55053 20.464399-14.195905 30.769726-3.270786 7.265685-7.78627 12.532897-8.237307 22.908795-0.424445 9.800083-12.805974 18.933328-19.895744 28.387718-2.081316 2.77577-4.061379 5.650747-5.155732 10.276689 16.358019-7.704449 32.08704-11.208424 50.605127-0.441832 1.26004-7.709563 3.558181-13.827711 2.991572-19.588917-3.386357-34.403591 1.516753-67.395773 12.053223-99.566679 1.285609-3.926374 3.447723-7.492738 5.204824-11.228879 1.357202 0.075684 2.714404 0.149323 4.073652 0.225007 1.909492 14.388183 3.818985 28.778412 5.874732 44.266063 2.918956-4.316046 5.746887-8.496065 8.57584-12.676084 1.153673-0.020455 2.306323-0.034774 3.457951-0.053184 1.820512 16.397906 3.641025 32.797858 5.554608 50.064087 8.461291-6.373838 14.647964-10.332941 20.043022-15.362873 3.197147-2.980322 5.385853-7.486601 7.6124-11.594004 4.839699-8.922556 7.952979-19.832333 14.51296-26.532432 6.162127-6.294063 7.160341-12.123793 7.809793-20.389737 1.666076-21.2059 4.21377-42.353502 7.160341-63.391669 0.873437-6.207129 4.257749-11.966288 8.383561-22.983456 2.514966 21.985242 9.417571 16.923605 17.120997 10.085433 6.169287-5.479946 12.777337-10.333964 20.067568-16.169831 1.777556 4.422413 3.148054 7.834339 4.591168 11.430362 13.690661-8.593227 27.446779-17.225319 41.205966-25.859456 0.795707 1.310155 1.589369 2.621333 2.387121 3.930466-3.217602 3.337265-7.614446 6.053715-9.329614 10.18055-1.761192 4.233202-0.900029 9.844062-1.352088 17.727494 11.260584-4.755833 20.269052-8.559476 30.298233-12.794724 0.391717 4.595259 0.70059 8.203556 1.10458 12.932796 7.537739 0 15.063205 0 22.58458 0 0.327283 0.903097 0.652521 1.803125 0.979804 2.705199-3.775006 2.519057-7.606264 4.931747-11.311722 7.576604-29.67435 21.167035-59.603367 41.901442-88.840999 63.812023-11.621618 8.706753-20.050181 19.517323-14.858653 38.793275 2.395303 8.8796-0.268986 22.424006-5.192551 30.199026-8.283331 13.075983-14.376933 26.892444-20.683269 41.043347-3.83944 8.613682-11.758668 15.138889-18.406606 21.901376-6.828967 6.947607-14.340114 13.047345-22.84027 20.675087 9.878836 8.373334 16.968606 14.381024 25.063749 21.238628-3.26874 2.598832-5.52188 4.390707-7.5899 6.032237 8.158554 10.619314 16.03994 20.880662 23.924395 31.139965-0.575814 1.086171-1.150605 2.171319-1.724373 3.25749-6.60805-1.36743-13.216101-2.734859-20.993166-4.344683 6.588618 10.664315 12.710858 20.570766 18.833097 30.475171-0.526721 0.975713-1.050374 1.954494-1.577095 2.933275-4.07672-1.459478-9.067787-1.701872-12.077769-4.571736-17.691697-16.862239-35.342484-33.839027-52.137221-51.809938-8.668911-9.280522-13.810324-9.982135-21.742848 0.336488-16.416316 21.339881-38.162233 25.57922-60.568852 18.569225-13.025868-4.07672-21.616026 0.591155-30.624494 6.68578 4.816175 17.498396 9.415526 34.205175 14.013853 50.912978C688.339625 950.682488 687.276978 951.382056 686.21433 952.081624zM238.54116 710.350323c19.042763 43.638088 47.804811 79.883669 76.805162 116.84825-5.157777 1.310155-9.463595 1.567891-12.976775-0.188188-11.535707-5.766319-23.081641-11.671734-34.086535-18.597862-28.509427-17.934091-53.192709-41.447337-76.091276-67.49089-3.561249-4.051151-7.652288-7.94582-12.146294-10.432149-6.831012-3.782165-16.002098 2.886228-19.092878 12.729267-3.065211 9.759173 3.842508 9.226315 8.7313 11.57048 6.865786 3.291241 14.728762 5.993372 19.780173 11.649233 14.450572 16.172899 28.606589 32.90218 41.21517 50.887409 22.499691 32.097268 50.732972 42.606124 81.230644 26.933354 17.808292-9.150631 33.530154-22.147861 44.458341-40.874591 13.382811-22.936409 26.084463-46.37397 39.936721-71.121687-9.974975-12.907227-20.302803-26.894489-31.37929-40.089112-2.344165-2.792134-7.888546-4.612646-11.158308-3.597046-21.131238 6.547708-42.091675 6.584527-63.248483 0.579905-2.867818-0.813094-6.4485-1.365384-9.002331-0.165687C267.398324 695.627697 253.495952 702.841221 238.54116 710.350323zM408.111649 730.188793c20.125865 23.88553 36.924693 48.491083 57.805355 67.398841 24.694533 22.362641 54.948788 22.571284 84.587341 15.575607-1.948357-10.512947-3.26874-19.157312-5.271303-27.597125-0.691386-2.914865-2.586559-6.807489-4.770151-7.722858-24.416342-10.237825-40.979936-29.075013-48.81632-54.157172-16.497114-5.382784-31.114396-10.458741-45.91066-14.775809-3.822053-1.116854-9.025854-1.446182-12.153454 0.622861C425.585499 714.817737 418.399589 721.663068 408.111649 730.188793zM405.338948 720.984978c8.72414-7.243184 16.48075-13.68657 24.873516-20.655655-12.916432 0-24.78965 0-38.923166 0C396.624012 708.169799 400.605616 714.025099 405.338948 720.984978z" p-id="6673"></path></svg>