<?xml version="1.0" standalone="no"?><!DOCTYPE svg PUBLIC "-//W3C//DTD SVG 1.1//EN" "http://www.w3.org/Graphics/SVG/1.1/DTD/svg11.dtd"><svg t="1737267873305" class="icon" viewBox="0 0 2389 1024" version="1.1" xmlns="http://www.w3.org/2000/svg" p-id="34285" width="466.6015625" height="200" data-spm-anchor-id="a313x.search_index.0.i10.785b3a81KeHH1d" xmlns:xlink="http://www.w3.org/1999/xlink"><path d="M2387.847892 0.795825c-196.398357 248.524925-531.668258 226.810259-813.674698 152.969025-71.226379-18.701899-130.856445-58.550017-227.890307-56.617298-60.255357 1.023204-130.970134 22.681026-190.088598 44.338847-84.869102 30.980349-162.177862 59.004774-254.152548 56.560453a597.21017 597.21017 0 0 1-85.437549-10.800488c-43.429333-8.242478-87.483957-18.190296-128.412124-22.169424a72.022205 72.022205 0 0 0-26.26224 2.955923c-10.232042 3.012768-20.066171 7.162429-29.331853 12.27845-24.272677 14.268014-68.213612 13.870101-93.96425 3.467526 66.678805-7.389808 131.368047-40.35972 159.165094-103.855224a463.852559 463.852559 0 0 1-139.951593 30.013989 89.814589 89.814589 0 0 0 45.930498-48.715888c-49.000111 29.78661-136.938825 51.160209-196.568891 61.051183-45.930499-2.955923-85.835461-9.379372-136.427223-4.945487-21.03253 6.707672-40.189186 17.906073-56.16254 32.799378-6.480293 4.945487-19.213501 11.823693-27.683358 10.345731-48.602198-2.444321-103.173088-2.444321-151.206839-7.389808a36.551127 36.551127 0 0 0-29.275008 8.242479 21.600977 21.600977 0 0 0-4.092817 24.102142c3.638059 8.299323 7.844565 16.371267 12.676363 24.102143 6.878206 11.141557 10.061508 19.213501 16.826024 30.013989a31.491951 31.491951 0 0 0 10.118353 13.301654c6.252914 10.800489 15.518597 19.725103 26.773842 25.580105a128.866881 128.866881 0 0 1-0.511602-16.371267l6.08238 1.477962c19.668258 3.922283 61.619629 10.288886 77.820362 15.745975 16.143888 5.400244 26.830687 9.322527 32.344621 19.156656 5.457089 9.834129 4.604419 33.481514-9.663595 33.993116-16.826024 0.454757-75.262352 0.454757-87.881869-5.457089-6.593982-3.410681-14.154324-17.223937-16.826025-30.013989-5.570778 2.955923-11.653159 21.14622-12.676362 26.603309a38.824914 38.824914 0 0 0-1.477962 9.322527c0 17.735539 9.60675 42.804041 28.763406 52.63817 27.399134-1.477962 54.911957 0.170534 81.856334 4.945487 37.005884 5.400244 77.422449 10.345731 111.813479 27.058066 37.744865 17.053403 72.192739 40.302876 101.86566 68.668369 51.387587 51.273898 50.591762 94.589541 120.397024 123.01188-9.663595-13.301654-18.076607-37.744865-13.98379-54.4572 84.186966 144.612857 186.450538 83.845898 264.100366 353.573887l51.160209-51.671811c-36.380593-257.108471-166.270678-225.957589-216.805596-378.585545 111.813478 43.770401 152.343733 23.70423 163.428445 18.872433a66.280893 66.280893 0 0 1-47.749528-21.316754c38.256467 8.185633 87.938714 0 138.246253-14.95015 104.309981-30.696125 216.919285-92.770512 275.185078-119.37382 54.684579-24.67059 109.482847-39.961807 157.17553-41.894527 27.797047-1.023204 57.185744 6.08238 80.83313 8.242478 44.168314 3.240147 61.562785-7.503497 69.350505-15.348062-39.50705 4.206506-65.314533-18.133452-65.88298-22.794715 7.730876 3.126457 76.910847 18.303986 104.935273-4.263351-19.952481 4.263351-58.436327-8.185633-63.836572-20.577773 18.36083 5.116021 37.517486 6.650827 56.503608 4.490729 66.508271-4.547574 119.885422-40.985012 184.063062-37.517486 64.17764 3.581215 128.298435 29.04763 188.951705 45.816809 50.023315 14.211169 161.268347 23.590541 249.207061-9.379371-100.04663 75.773954-257.790607 34.959476-342.204952 15.745975-46.442101-10.345731-78.275119-15.745975-130.856445 2.955923-31.321417 11.823693-68.44099 34.220495-82.083713 65.655601 5.059176 88.109248-54.343511 159.733541-108.402797 183.267237-88.450316 38.483846-143.589652 92.656822-170.875098 190.202287-163.257911 49.739092-335.326746 152.400577-429.518374 306.392806 98.511824-45.70312 140.690574 2.501166 226.639724 10.402575 71.226379 6.821361 223.229044-11.653159 291.954258-90.212501-72.761186 29.502387-182.300877 43.599867-258.07483 39.222827-45.020984-4.490729-92.031531-11.368935-128.412124-36.437438 75.319196-107.777506 204.640835-166.384368 326.458976-208.676807 22.737871-140.235817 147.625625-141.315865 239.600311-211.177972 51.558121-39.393361 76.285556-109.255468 73.272788-178.151216 9.60675-31.491951 28.308649-46.783169 49.511713-51.728656 45.418896-9.890974 83.732208 3.751749 122.955035 21.600977 48.090596 22.055734 124.546686 56.16254 163.655823 50.307539a36.892195 36.892195 0 0 1-22.339958-16.428111c28.820251 11.368935 167.350727 38.370157 215.896081 8.185633-13.13112 1.477962-39.450205-4.433885-47.522149-11.312091C2184.685018 344.706117 2376.251578 245.625847 2387.847892 0.795825zM264.869764 282.915954C240.256019 292.579549 231.16087 267.965804 227.75019 232.153658c33.026757-15.404907 90.383035 18.247141 113.689353 29.559232-25.239036 3.979127-49.341179 15.461752-76.569779 21.203064z m954.990562 431.564783s-223.683801 54.400355-416.103031 309.519263H682.507601c6.19607-19.895637 22.169424-48.602198 44.111469-51.842345 12.107916 0 24.272677-0.966359 36.266903-2.728544a44.168314 44.168314 0 0 0 21.544133-13.529033c97.033863-110.73343 182.300877-178.833352 290.078383-231.92628a137.393583 137.393583 0 0 1 3.240147-167.862329C1177.624732 423.549684 1364.643717 398.70856 1364.643717 398.70856s-208.165205 93.11158-214.702342 212.769624a99.421339 99.421339 0 0 0 69.918951 103.002553z m-311.054069-83.39114c-63.21128-20.293549-141.713778-16.882869-144.669701 108.687021-74.864439-135.006106 32.572-240.055068 153.025869-184.574664C934.045294 523.937382 989.468853 468.570667 1080.420335 455.553236c-90.041967 30.070834-153.366937 126.195182-171.670922 175.536361z" fill="#1296db" p-id="34286" data-spm-anchor-id="a313x.search_index.0.i6.785b3a81KeHH1d" class=""></path></svg>