<?xml version="1.0" standalone="no"?><!DOCTYPE svg PUBLIC "-//W3C//DTD SVG 1.1//EN" "http://www.w3.org/Graphics/SVG/1.1/DTD/svg11.dtd"><svg t="1737266413305" class="icon" viewBox="0 0 1274 1024" version="1.1" xmlns="http://www.w3.org/2000/svg" p-id="4361" xmlns:xlink="http://www.w3.org/1999/xlink" width="248.828125" height="200"><path d="M651.202676 186.278336c-11.593735 0.240651-50.720821 23.470589-34.299901 87.76698-22.805259-1.415596-36.876287 3.524835-39.806573 28.311929-28.085433-8.267083-44.6196 1.415596-23.272405 68.769675-46.459875-30.930782-59.610766-41.137233-65.414712 2.831193-11.551267-5.393422-24.461507-13.122579-48.823921 25.112681-10.687753-14.906231-38.362664-12.584652-71.218657 21.743561-2.194174-10.999184-22.522139-42.184774-62.441959-15.104414 0 0-4.246789-40.160471-86.492943-67.722134 86.039952 0.14156 131.650469-16.406763 156.465875-55.321509 48.130279 30.09558 105.221284 31.482865 71.954767-35.389911 38.150324 38.02292 37.173563-3.807954 34.880297-28.566736 27.335167 69.151886 72.662565 12.528029 50.211205-47.833004 25.367488-18.629249 40.570994-38.405132 49.857307-60.375189a448.531733 448.531733 0 0 0-70.0154-5.492514c-226.764394 0-414.033648 169.092995-442.61454 388.085765a70.355143 70.355143 0 0 0 34.314058 19.931598c-6.922267 41.179701 6.922267 81.410952 41.236324 41.349573-14.566487 36.210957 12.03257 25.013589 27.335167 17.18534-37.315122 36.47992 10.687753 53.891757 43.642839 23.017599 38.490067 27.108672 68.812143 22.210708 106.877531 9.810083-32.218975 21.955901-39.141242 41.434508-42.255554 57.020225-6.38434-3.977826-26.315938-19.351203-44.010893 19.634322-3.142624-8.040588-28.142057-29.515186-65.117437-1.882743-4.954588-16.279359-11.763606-24.857874-28.439332-20.667708-1.925211-21.686938-12.400625-30.817535-50.140426 1.047541 7.884872-40.231251 11.041652-51.980701-18.671717-44.973499 0.297275-5.973817 1.075853-12.584652-6.299404-18.501845 22.295644 225.575293 212.594274 401.760427 444.143384 401.760427a444.652999 444.652999 0 0 0 201.538466-47.98872c-9.073973-55.689564-22.267332-67.170051-75.125703-35.205883-6.412652-24.06514-11.211524-52.801747-94.406127-46.403252 7.99812-33.60626-28.807388-73.611015-116.800863-84.808383 12.740368-15.99624 31.99248-83.194603-54.401371-113.601614 0 0 51.202123-52.801747-9.597744-211.20699 103.989715 132.811258 182.399602 184.027538 267.193829 177.614886 16.010396 108.802743 83.208759 198.395842 136.831552 70.256052-7.219542 102.545806 50.381077 52.943307 82.373557 20.936671q-3.652239 6.964735-6.45512 13.405698c-22.323956 51.046408-6.087065 78.183392 23.145002 82.104594a444.497284 444.497284 0 0 0 92.042081-271.511398c0-202.246264-134.481662-373.052131-318.933879-427.906493-9.909175 10.178138-19.620167 29.387782 11.01334 62.767546z" fill="#F7E7B0" p-id="4362"></path><path d="M651.202676 186.278336c-11.593735 0.240651-50.720821 23.470589-34.299901 87.76698-22.805259-1.415596-36.876287 3.524835-39.806573 28.311929-28.085433-8.267083-44.6196 1.415596-23.272405 68.769675-46.459875-30.930782-59.610766-41.137233-65.414712 2.831193-11.551267-5.393422-24.461507-13.122579-48.823921 25.112681-10.687753-14.906231-38.362664-12.584652-71.218657 21.743561-2.194174-10.999184-22.522139-42.184774-62.441959-15.104414 0 0-4.246789-40.160471-86.492943-67.722134 86.039952 0.14156 131.650469-16.406763 156.465875-55.321509 48.130279 30.09558 105.221284 31.482865 71.954767-35.389911 38.150324 38.02292 37.173563-3.807954 34.880297-28.566736 27.335167 69.151886 72.662565 12.528029 50.211205-47.833004 25.367488-18.629249 40.570994-38.405132 49.857307-60.375189a448.531733 448.531733 0 0 0-70.0154-5.492514c-226.764394 0-414.033648 169.092995-442.61454 388.085765a70.355143 70.355143 0 0 0 34.314058 19.931598c-6.922267 41.179701 6.922267 81.410952 41.236324 41.349573-14.566487 36.210957 12.03257 25.013589 27.335167 17.18534-37.315122 36.47992 10.687753 53.891757 43.642839 23.017599 38.490067 27.108672 68.812143 22.210708 106.877531 9.810083-32.218975 21.955901-39.141242 41.434508-42.255554 57.020225-6.38434-3.977826-26.315938-19.351203-44.010893 19.634322-3.142624-8.040588-28.142057-29.515186-65.117437-1.882743-4.954588-16.279359-11.763606-24.857874-28.439332-20.667708-1.925211-21.686938-12.400625-30.817535-50.140426 1.047541 7.884872-40.231251 11.041652-51.980701-18.671717-44.973499 0.297275-5.973817 1.075853-12.584652-6.299404-18.501845 22.295644 225.575293 212.594274 401.760427 444.143384 401.760427a444.652999 444.652999 0 0 0 201.538466-47.98872c-9.073973-55.689564-22.267332-67.170051-75.125703-35.205883-6.412652-24.06514-11.211524-52.801747-94.406127-46.403252 7.99812-33.60626-28.807388-73.611015-116.800863-84.808383 12.740368-15.99624 31.99248-83.194603-54.401371-113.601614 0 0 51.202123-52.801747-9.597744-211.20699 103.989715 132.811258 182.399602 184.027538 267.193829 177.614886 16.010396 108.802743 83.208759 198.395842 136.831552 70.256052-7.219542 102.545806 50.381077 52.943307 82.373557 20.936671q-3.652239 6.964735-6.45512 13.405698c-22.323956 51.046408-6.087065 78.183392 23.145002 82.104594a444.497284 444.497284 0 0 0 92.042081-271.511398c0-202.246264-134.481662-373.052131-318.933879-427.906493-9.909175 10.178138-19.620167 29.387782 11.01334 62.767546z" fill="#FBF0CB" p-id="4363"></path><path d="M1254.105202 687.923248c-85.374622 61.904033-157.371857 98.695384-275.772343 61.904033-55.406445 100.040201-181.875831 99.403182-134.481663-9.003194q2.831193-6.45512 6.45512-13.405698c-31.99248 32.006636-89.593099 81.609135-82.373557-20.936671-53.622793 128.13979-120.821157 38.546691-136.831552-70.256052-84.794227 6.398496-163.204114-44.803627-267.193829-177.614886 60.870647 158.405242 9.597744 211.20699 9.597744 211.20699 86.351383 30.407012 67.198363 97.605375 54.401371 113.601614 87.993475 11.211524 124.798983 51.202123 116.800863 84.808383 83.194603-6.398496 87.993475 22.394736 94.406127 46.403252 52.858371-31.964168 66.05173-20.483681 75.125703 35.205883 2.746257 16.774818 5.110303 37.56993 8.0689 62.385336 68.797987-110.416523 102.404247-95.991595 124.798982-43.189848 38.405132-24.06514 62.413647-7.99812 88.007631 28.793232 70.397611-99.204999 150.407122-65.598739 164.803738-48.002876 12.740368-112.001991 75.196483-89.593099 94.406127-84.794227-4.798872-41.60438-3.199248-96.005751 59.766482-177.105271z m-410.23985 52.929151c-22.323956 51.046408-6.087065 78.183392 23.145002 82.104594-29.232067-3.949514-45.468958-31.143122-23.145002-82.104594zM577.096202 302.328933c2.930285-24.80125 16.987157-29.727525 39.806573-28.311929-16.420919-64.253923 22.649543-87.48386 34.299901-87.76698-30.633507-33.351452-20.922515-52.561096-11.01334-62.739234a88.644649 88.644649 0 0 1 8.040588-7.077982c-17.978075-12.075038-38.943058-31.284681-50.621729-86.167356-1.627936 30.152204-4.77056 56.43983-14.807139 80.165227-9.286313 21.970057-24.489818 41.745939-49.857307 60.375188 22.45136 60.431812-22.876039 117.05567-50.211205 47.903784 2.293266 24.758782 3.270028 66.533033-34.880297 28.566736 33.266516 66.844464-23.824488 65.45718-71.954767 35.389911-24.87203 38.914746-70.425923 55.463069-156.465875 55.321509 82.18953 27.561663 86.492943 67.722134 86.492943 67.722134 39.91982-27.08036 60.247785 4.10523 62.441959 15.104414 32.855993-34.328214 60.530904-36.649792 71.218657-21.743561 24.362415-38.221104 37.272654-30.506103 48.823921-25.112681 5.803945-43.968426 18.954836-33.761975 65.414712-2.831193-21.347194-67.410703-4.813028-77.06507 23.272405-68.797987zM216.628724 594.578819c-32.955085 30.874158-80.957961 13.462322-43.642838-23.017599-15.302598 7.828248-41.901655 19.025616-27.335168-17.18534-34.314058 40.061379-48.130279-0.169872-41.236324-41.349573a70.355143 70.355143 0 0 1-34.314058-19.903286c-15.161038-15.401689-28.396865-39.6367-41.5336-75.422978 3.496523 64.338858-21.233947 77.447281-21.233946 77.447281 27.67491 21.064075 12.896084 43.119068 6.398496 47.394169 30.491947 14.325836 39.127086 33.068333 32.318066 44.279857 11.239836 2.689633 18.176258 5.874725 22.408892 9.272157 7.375257 5.917193 6.596679 12.528029 6.299404 18.501845 29.727525-7.007202 26.556589 4.742248 18.671717 44.973499 37.739801-31.865076 48.215215-22.734479 50.140426-1.047541 16.675726-4.246789 23.484745 4.388349 28.439333 20.667708 37.017847-27.632443 62.01728-6.157845 65.117436 1.882743 17.694956-38.985526 37.626553-23.612149 44.010894-19.634322 3.114312-15.571561 10.036579-35.064324 42.255554-57.020225-37.952141 12.372313-68.245905 17.270277-106.764284-9.838395z" fill="#030000" p-id="4364"></path></svg>