<?xml version="1.0" standalone="no"?><!DOCTYPE svg PUBLIC "-//W3C//DTD SVG 1.1//EN" "http://www.w3.org/Graphics/SVG/1.1/DTD/svg11.dtd"><svg t="1737266526491" class="icon" viewBox="0 0 1164 1024" version="1.1" xmlns="http://www.w3.org/2000/svg" p-id="4695" xmlns:xlink="http://www.w3.org/1999/xlink" width="227.34375" height="200"><path d="M168.509363 424.749064c-15.101124 0-30.681648 4.554307-47.220973 13.423221 0.719101-3.835206 1.198502-7.910112 1.198501-12.224719 0-17.977528-9.108614-33.318352-27.086142-46.022472-11.985019-5.992509-28.524345-8.868914-49.378277-8.868914-14.142322 0-29.722846 1.438202-46.022472 4.554307 70.47191-78.621723 123.205993-117.932584 158.441948-117.932584 4.554307 0 7.430712 0.719101 8.868913 2.157303 18.696629 10.546816 60.404494 50.576779 124.644195 120.329588 1.438202-23.250936 13.183521-41.947566 34.756554-56.089888 21.812734-71.191011 38.11236-107.146067 49.378278-107.865168 10.546816 0 19.895131 29.962547 28.044943 89.88764 10.546816 0.719101 20.134831 2.157303 29.243446 4.554307 28.524345-53.213483 47.460674-77.423221 57.28839-73.108614 10.546816 3.835206 13.423221 41.707865 8.868914 113.617978 16.539326 20.374532 22.771536 41.228464 19.176029 63.041198-0.719101 3.116105-1.438202 5.752809-2.157303 7.910113 78.621723-39.071161 127.7603-60.404494 147.17603-64 35.955056 3.116105 75.026217 58.726592 116.973783 167.550561-35.235955-21.812734-65.677903-31.400749-91.086142-29.243445-27.086142 5.273408-41.707865 20.614232-43.865169 46.022472-23.250936-26.127341-47.220974-36.674157-71.910112-31.400749-23.250936 6.71161-39.071161 24.449438-47.220974 52.734082-17.258427-38.11236-39.790262-57.048689-67.355805-56.089888-0.719101 0-7.910112 3.595506-21.333334 10.786517-13.423221 7.191011-26.127341 10.786517-38.112359 10.786517-6.71161 0-13.902622-1.198502-21.333334-3.355805-17.977528-5.273408-32.11985-14.142322-42.666666-26.846442-5.273408-5.992509-10.067416-12.464419-14.621723-19.17603-33.797753-4.554307-65.677903 2.157303-95.64045 20.134831 1.438202-27.086142-7.191011-48.659176-25.88764-65.198502-7.910112-6.951311-18.456929-10.067416-31.161049-10.067415zM1040.299625 173.06367c82.696629 95.88015 124.164794 207.820225 124.164794 336.059926 0 142.382022-50.337079 263.670412-151.250936 364.104868-100.913858 100.434457-222.441948 150.531835-364.82397 150.531836-116.973783 0-221.003745-35.235955-312.569288-105.707866-91.325843-70.47191-152.449438-160.599251-183.131086-270.861423 87.730337 103.310861 198.951311 155.086142 333.902621 155.086143 121.28839 0 224.838951-42.666667 310.172285-128 85.333333-85.333333 128.2397-188.404494 128.2397-308.973783 0-75.026217-17.737828-144.539326-52.734082-209.018727-35.235955-64.479401-82.93633-116.494382-142.861423-156.284644 124.404494 19.41573 227.955056 77.183521 310.891385 173.06367z" fill="#231F20" p-id="4696"></path></svg>